<svg width="283" height="417" viewBox="0 0 283 417" fill="none" xmlns="http://www.w3.org/2000/svg">
<path d="M57.798 91.6H158.004C182.4 91.6 203.376 95.704 220.932 103.912C238.716 111.892 252.282 123.406 261.63 138.454C271.206 153.502 275.994 171.172 275.994 191.464C275.994 219.28 269.724 243.79 257.184 264.994C244.644 285.97 227.088 302.272 204.516 313.9C182.172 325.3 156.294 331 126.882 331H9.918L57.798 91.6ZM128.592 285.514C147.288 285.514 163.476 281.638 177.156 273.886C191.064 265.906 201.666 255.076 208.962 241.396C216.258 227.488 219.906 211.87 219.906 194.542C219.906 176.53 214.092 162.508 202.464 152.476C190.836 142.216 173.964 137.086 151.848 137.086H104.31L74.556 285.514H128.592Z" fill="#F55139"/>
<path d="M28.386 91.6H137.142C163.134 91.6 186.048 96.616 205.884 106.648C225.948 116.452 241.452 130.36 252.396 148.372C263.568 166.384 269.154 187.36 269.154 211.3C269.154 235.24 263.568 256.216 252.396 274.228C241.452 292.24 225.948 306.262 205.884 316.294C186.048 326.098 163.134 331 137.142 331H28.386V91.6ZM134.406 285.514C158.346 285.514 177.384 278.902 191.52 265.678C205.884 252.226 213.066 234.1 213.066 211.3C213.066 188.5 205.884 170.488 191.52 157.264C177.384 143.812 158.346 137.086 134.406 137.086H83.79V285.514H134.406Z" fill="#EBE7D9"/>
<path d="M73.76 379H86C88.9867 379 91.64 379.587 93.96 380.76C96.28 381.907 98.08 383.547 99.36 385.68C100.64 387.787 101.28 390.227 101.28 393C101.28 395.773 100.64 398.227 99.36 400.36C98.08 402.467 96.28 404.107 93.96 405.28C91.64 406.427 88.9867 407 86 407H73.76V379ZM85.76 402.6C87.8133 402.6 89.6133 402.213 91.16 401.44C92.7333 400.64 93.9333 399.52 94.76 398.08C95.6133 396.613 96.04 394.92 96.04 393C96.04 391.08 95.6133 389.4 94.76 387.96C93.9333 386.493 92.7333 385.373 91.16 384.6C89.6133 383.8 87.8133 383.4 85.76 383.4H78.96V402.6H85.76ZM118.447 385.4C121.14 385.4 123.3 386.187 124.927 387.76C126.554 389.333 127.367 391.667 127.367 394.76V407H122.367V395.4C122.367 393.533 121.927 392.133 121.047 391.2C120.167 390.24 118.914 389.76 117.287 389.76C115.447 389.76 113.994 390.32 112.927 391.44C111.86 392.533 111.327 394.12 111.327 396.2V407H106.327V377.32H111.327V388.12C112.154 387.24 113.167 386.573 114.367 386.12C115.594 385.64 116.954 385.4 118.447 385.4ZM141.87 385.4C145.016 385.4 147.416 386.16 149.07 387.68C150.75 389.173 151.59 391.44 151.59 394.48V407H146.87V404.4C146.256 405.333 145.376 406.053 144.23 406.56C143.11 407.04 141.75 407.28 140.15 407.28C138.55 407.28 137.15 407.013 135.95 406.48C134.75 405.92 133.816 405.16 133.15 404.2C132.51 403.213 132.19 402.107 132.19 400.88C132.19 398.96 132.896 397.427 134.31 396.28C135.75 395.107 138.003 394.52 141.07 394.52H146.59V394.2C146.59 392.707 146.136 391.56 145.23 390.76C144.35 389.96 143.03 389.56 141.27 389.56C140.07 389.56 138.883 389.747 137.71 390.12C136.563 390.493 135.59 391.013 134.79 391.68L132.83 388.04C133.95 387.187 135.296 386.533 136.87 386.08C138.443 385.627 140.11 385.4 141.87 385.4ZM141.19 403.64C142.443 403.64 143.55 403.36 144.51 402.8C145.496 402.213 146.19 401.387 146.59 400.32V397.84H141.43C138.55 397.84 137.11 398.787 137.11 400.68C137.11 401.587 137.47 402.307 138.19 402.84C138.91 403.373 139.91 403.64 141.19 403.64ZM177.616 385.64L168.456 407H163.296L154.136 385.64H159.336L165.976 401.48L172.816 385.64H177.616ZM188.237 385.4C191.384 385.4 193.784 386.16 195.437 387.68C197.117 389.173 197.957 391.44 197.957 394.48V407H193.237V404.4C192.624 405.333 191.744 406.053 190.597 406.56C189.477 407.04 188.117 407.28 186.517 407.28C184.917 407.28 183.517 407.013 182.317 406.48C181.117 405.92 180.184 405.16 179.517 404.2C178.877 403.213 178.557 402.107 178.557 400.88C178.557 398.96 179.264 397.427 180.677 396.28C182.117 395.107 184.37 394.52 187.437 394.52H192.957V394.2C192.957 392.707 192.504 391.56 191.597 390.76C190.717 389.96 189.397 389.56 187.637 389.56C186.437 389.56 185.25 389.747 184.077 390.12C182.93 390.493 181.957 391.013 181.157 391.68L179.197 388.04C180.317 387.187 181.664 386.533 183.237 386.08C184.81 385.627 186.477 385.4 188.237 385.4ZM187.557 403.64C188.81 403.64 189.917 403.36 190.877 402.8C191.864 402.213 192.557 401.387 192.957 400.32V397.84H187.797C184.917 397.84 183.477 398.787 183.477 400.68C183.477 401.587 183.837 402.307 184.557 402.84C185.277 403.373 186.277 403.64 187.557 403.64ZM204.374 377.32H209.374V407H204.374V377.32Z" fill="#EBE7D9"/>
</svg>
